<svg xmlns:xlink="http://www.w3.org/1999/xlink" width="36" xmlns="http://www.w3.org/2000/svg" height="36" id="screenshot-1aa068d7-4649-80e7-8001-ff90b0d2a1c6" viewBox="0 0 36 36" style="-webkit-print-color-adjust: exact;" fill="none" version="1.1"><g id="shape-1aa068d7-4649-80e7-8001-ff90b0d2a1c6"><defs><clipPath class="frame-clip-def frame-clip" id="frame-clip-1aa068d7-4649-80e7-8001-ff90b0d2a1c6-rumext-id-6"><rect rx="18" ry="18" x="0" y="0" width="36" height="36" transform="matrix(1.000000, 0.000000, 0.000000, 1.000000, 0.000000, 0.000000)" style="fill: rgb(50, 50, 50); fill-opacity: 1;"/></clipPath></defs><g clip-path="url(#frame-clip-1aa068d7-4649-80e7-8001-ff90b0d2a1c6-rumext-id-6)"><clipPath class="frame-clip-def frame-clip" id="frame-clip-1aa068d7-4649-80e7-8001-ff90b0d2a1c6-rumext-id-6"><rect rx="18" ry="18" x="0" y="0" width="36" height="36" transform="matrix(1.000000, 0.000000, 0.000000, 1.000000, 0.000000, 0.000000)" style="fill: rgb(50, 50, 50); fill-opacity: 1;"/></clipPath><g class="fills" id="fills-1aa068d7-4649-80e7-8001-ff90b0d2a1c6"><rect width="36" height="36" class="frame-background" x="0" transform="matrix(1.000000, 0.000000, 0.000000, 1.000000, 0.000000, 0.000000)" style="fill: rgb(50, 50, 50); fill-opacity: 1;" ry="18" rx="18" y="0"/></g><g class="frame-children"><g id="shape-461eb2b0-082e-8051-8002-0138bcab2192"><g class="fills" id="fills-461eb2b0-082e-8051-8002-0138bcab2192"><path rx="0" ry="0" d="M29.074,15.229L18.074,5.229L7.074,15.729L10.074,18.729L16.120,12.585L16.285,31.877L20.285,31.877L20.179,12.625L26.074,18.229L29.074,15.229Z" style="fill: rgb(255, 255, 255); fill-opacity: 1;"/></g></g></g></g></g></svg>