<svg xmlns:xlink="http://www.w3.org/1999/xlink" width="36" xmlns="http://www.w3.org/2000/svg" height="36" id="screenshot-461eb2b0-082e-8051-8002-0126b3678f4c" viewBox="0 0 36 36" style="-webkit-print-color-adjust: exact;" fill="none" version="1.1"><g id="shape-461eb2b0-082e-8051-8002-0126b3678f4c"><defs><clipPath class="frame-clip-def frame-clip" id="frame-clip-461eb2b0-082e-8051-8002-0126b3678f4c-rumext-id-8"><rect rx="18" ry="18" x="0" y="0" width="36" height="36" transform="matrix(1.000000, 0.000000, 0.000000, 1.000000, 0.000000, 0.000000)" style="fill: rgb(50, 50, 50); fill-opacity: 1;"/></clipPath></defs><g clip-path="url(#frame-clip-461eb2b0-082e-8051-8002-0126b3678f4c-rumext-id-8)"><clipPath class="frame-clip-def frame-clip" id="frame-clip-461eb2b0-082e-8051-8002-0126b3678f4c-rumext-id-8"><rect rx="18" ry="18" x="0" y="0" width="36" height="36" transform="matrix(1.000000, 0.000000, 0.000000, 1.000000, 0.000000, 0.000000)" style="fill: rgb(50, 50, 50); fill-opacity: 1;"/></clipPath><g class="fills" id="fills-461eb2b0-082e-8051-8002-0126b3678f4c"><rect width="36" height="36" class="frame-background" x="0" transform="matrix(1.000000, 0.000000, 0.000000, 1.000000, 0.000000, 0.000000)" style="fill: rgb(50, 50, 50); fill-opacity: 1;" ry="18" rx="18" y="0"/></g><g class="frame-children"><g id="shape-461eb2b0-082e-8051-8002-012a54973b75"><g class="fills" id="fills-461eb2b0-082e-8051-8002-012a54973b75"><path rx="0" ry="0" d="M15.266,3.500L20.728,3.500L20.728,6.677L23.993,8.080L26.191,5.769L30.302,9.844L28.011,12.123L29.395,15.321L32.948,15.278L33.000,20.724L29.377,20.746L28.018,24.341L30.303,26.617L26.692,30.314L23.932,27.974L20.793,29.373L20.736,33.000L15.280,32.990L15.339,29.335L11.663,27.991L9.330,30.285L5.698,26.606L7.997,24.369L6.658,20.734L3.039,20.699L3.000,15.289L6.592,15.276L8.028,12.052L6.134,9.871L9.838,6.159L12.074,8.070L15.282,6.613L15.266,3.500ZM17.997,11.669C16.139,11.669,14.373,12.426,13.487,13.408C12.585,14.407,11.625,15.640,11.625,18.023C11.625,20.207,12.563,21.703,13.487,22.541C14.437,23.402,15.939,24.377,17.997,24.377C20.055,24.377,21.702,23.474,22.563,22.541C23.392,21.643,24.370,20.207,24.370,18.023C24.370,16.004,23.491,14.393,22.563,13.485C21.664,12.605,20.221,11.669,17.997,11.669Z" style="fill: rgb(255, 255, 255); fill-opacity: 1;"/></g></g></g></g></g></svg>