<svg xmlns:xlink="http://www.w3.org/1999/xlink" width="36" xmlns="http://www.w3.org/2000/svg" height="36" id="screenshot-0069f0b3-a5d3-80dc-8002-0219c2e845b8" viewBox="0 0 36 36" style="-webkit-print-color-adjust: exact;" fill="none" version="1.1"><g id="shape-0069f0b3-a5d3-80dc-8002-0219c2e845b8"><defs><clipPath class="frame-clip-def frame-clip" id="frame-clip-0069f0b3-a5d3-80dc-8002-0219c2e845b8-rumext-id-3"><rect rx="18" ry="18" x="0" y="0" width="36" height="36" transform="matrix(1.000000, 0.000000, 0.000000, 1.000000, 0.000000, 0.000000)" style="fill: rgb(50, 50, 50); fill-opacity: 1;"/></clipPath></defs><g clip-path="url(#frame-clip-0069f0b3-a5d3-80dc-8002-0219c2e845b8-rumext-id-3)"><clipPath class="frame-clip-def frame-clip" id="frame-clip-0069f0b3-a5d3-80dc-8002-0219c2e845b8-rumext-id-3"><rect rx="18" ry="18" x="0" y="0" width="36" height="36" transform="matrix(1.000000, 0.000000, 0.000000, 1.000000, 0.000000, 0.000000)" style="fill: rgb(50, 50, 50); fill-opacity: 1;"/></clipPath><g class="fills" id="fills-0069f0b3-a5d3-80dc-8002-0219c2e845b8"><rect width="36" height="36" class="frame-background" x="0" transform="matrix(1.000000, 0.000000, 0.000000, 1.000000, 0.000000, 0.000000)" style="fill: rgb(50, 50, 50); fill-opacity: 1;" ry="18" rx="18" y="0"/></g><g class="frame-children"><g id="shape-0069f0b3-a5d3-80dc-8002-0219c2e845b9"><g class="fills" id="fills-0069f0b3-a5d3-80dc-8002-0219c2e845b9"><path rx="0" ry="0" d="M7.074,21.877L18.074,31.877L29.074,21.377L26.074,18.377L20.028,24.521L19.863,5.229L15.863,5.229L15.969,24.481L10.074,18.877L7.074,21.877Z" style="fill: rgb(255, 255, 255); fill-opacity: 1;"/></g></g></g></g></g></svg>